<svg width="40" height="41" viewBox="0 0 40 41" fill="none" xmlns="http://www.w3.org/2000/svg">
<path d="M33.9394 0.5C34.4621 0.5 34.9242 0.83327 35.0909 1.3256L36.1136 4.38563L39.1742 5.40816C39.6667 5.5748 40 6.03683 40 6.55946C40 7.08209 39.6667 7.54412 39.1742 7.71076L36.1136 8.73329L35.0909 11.7933C34.9242 12.2856 34.4621 12.6189 33.9394 12.6189C33.4167 12.6189 32.9545 12.2856 32.7879 11.7933L31.7652 8.73329L28.7045 7.71076C28.2121 7.54412 27.8788 7.08209 27.8788 6.55946C27.8788 6.03683 28.2121 5.5748 28.7045 5.40816L31.7652 4.38563L32.7879 1.3256C32.9545 0.83327 33.4167 0.5 33.9394 0.5ZM21.9242 9.08928C22.8712 8.14249 24.4091 8.14249 25.3561 9.08928L31.4167 15.1487C32.3636 16.0955 32.3636 17.6331 31.4167 18.5799L30.5909 19.4055C31.1894 21.0719 31.5152 22.867 31.5152 24.7454C31.5152 33.4483 24.4621 40.5 15.7576 40.5C7.05303 40.5 0 33.4407 0 24.7378C0 16.0349 7.05303 8.98324 15.7576 8.98324C17.6288 8.98324 19.4318 9.30894 21.0985 9.91488L21.9242 9.08928ZM8.48485 24.7378C8.48485 20.7234 11.7424 17.4665 15.7576 17.4665C16.7652 17.4665 17.5758 16.656 17.5758 15.6486C17.5758 14.6413 16.7652 13.8308 15.7576 13.8308C9.73485 13.8308 4.84848 18.7162 4.84848 24.7378C4.84848 25.7452 5.65909 26.5557 6.66667 26.5557C7.67424 26.5557 8.48485 25.7452 8.48485 24.7378Z" fill="#F5F5F5"/>
<path d="M33.9394 0.5C34.4621 0.5 34.9242 0.83327 35.0909 1.3256L36.1136 4.38563L39.1742 5.40816C39.6667 5.5748 40 6.03683 40 6.55946C40 7.08209 39.6667 7.54412 39.1742 7.71076L36.1136 8.73329L35.0909 11.7933C34.9242 12.2856 34.4621 12.6189 33.9394 12.6189C33.4167 12.6189 32.9545 12.2856 32.7879 11.7933L31.7652 8.73329L28.7045 7.71076C28.2121 7.54412 27.8788 7.08209 27.8788 6.55946C27.8788 6.03683 28.2121 5.5748 28.7045 5.40816L31.7652 4.38563L32.7879 1.3256C32.9545 0.83327 33.4167 0.5 33.9394 0.5ZM21.9242 9.08928C22.8712 8.14249 24.4091 8.14249 25.3561 9.08928L31.4167 15.1487C32.3636 16.0955 32.3636 17.6331 31.4167 18.5799L30.5909 19.4055C31.1894 21.0719 31.5152 22.867 31.5152 24.7454C31.5152 33.4483 24.4621 40.5 15.7576 40.5C7.05303 40.5 0 33.4407 0 24.7378C0 16.0349 7.05303 8.98324 15.7576 8.98324C17.6288 8.98324 19.4318 9.30894 21.0985 9.91488L21.9242 9.08928ZM8.48485 24.7378C8.48485 20.7234 11.7424 17.4665 15.7576 17.4665C16.7652 17.4665 17.5758 16.656 17.5758 15.6486C17.5758 14.6413 16.7652 13.8308 15.7576 13.8308C9.73485 13.8308 4.84848 18.7162 4.84848 24.7378C4.84848 25.7452 5.65909 26.5557 6.66667 26.5557C7.67424 26.5557 8.48485 25.7452 8.48485 24.7378Z" fill="url(#paint0_linear_6_66)" fill-opacity="0.2"/>
<defs>
<linearGradient id="paint0_linear_6_66" x1="22.291" y1="0.500015" x2="2.16436" y2="24.6584" gradientUnits="userSpaceOnUse">
<stop offset="0.0283" stop-color="#94641E"/>
<stop offset="0.2829" stop-color="#F3C468"/>
<stop offset="0.3185" stop-color="#F9DBA2"/>
<stop offset="0.35" stop-color="#EECD8C"/>
<stop offset="0.42" stop-color="#F1D091"/>
<stop offset="0.6742" stop-color="#ECD8A3"/>
<stop offset="0.7073" stop-color="#ECD8A3"/>
<stop offset="0.7508" stop-color="#FFB100"/>
</linearGradient>
</defs>
</svg>
