<svg width="225" height="225" viewBox="0 0 225 225" fill="none" xmlns="http://www.w3.org/2000/svg">
<path d="M190.909 0C193.849 0 196.449 1.87465 197.386 4.64401L203.139 21.8567L220.355 27.6084C223.125 28.5457 225 31.1447 225 34.0845C225 37.0242 223.125 39.6232 220.355 40.5605L203.139 46.3123L197.386 63.5249C196.449 66.2943 193.849 68.1689 190.909 68.1689C187.969 68.1689 185.369 66.2943 184.432 63.5249L178.679 46.3123L161.463 40.5605C158.693 39.6232 156.818 37.0242 156.818 34.0845C156.818 31.1447 158.693 28.5457 161.463 27.6084L178.679 21.8567L184.432 4.64401C185.369 1.87465 187.969 0 190.909 0ZM123.324 48.3147C128.651 42.989 137.301 42.989 142.628 48.3147L176.719 82.3992C182.045 87.7249 182.045 96.3738 176.719 101.7L172.074 106.344C175.44 115.717 177.273 125.814 177.273 136.38C177.273 185.334 137.599 225 88.6364 225C39.6733 225 0 185.292 0 136.338C0 87.384 39.6733 47.7182 88.6364 47.7182C99.1619 47.7182 109.304 49.5503 118.679 52.9587L123.324 48.3147ZM47.7273 136.338C47.7273 113.757 66.0511 95.4365 88.6364 95.4365C94.304 95.4365 98.8636 90.8777 98.8636 85.2111C98.8636 79.5446 94.304 74.9858 88.6364 74.9858C54.7585 74.9858 27.2727 102.466 27.2727 136.338C27.2727 142.004 31.8324 146.563 37.5 146.563C43.1676 146.563 47.7273 142.004 47.7273 136.338Z" fill="#F5F5F5"/>
</svg>
